#!OML:ASF H:\Terrain\Patient Classification 1\Terrain2\Thursday\justin.ASF
:FULLY-SPECIFIED
:DEGREES
2897
root -8.77587 17.4625 21.4348 582.486 -95.3376 -218.166
lowerback 9.50012 1.9143 6.48273
upperback 3.56521 3.01279 3.5974
thorax -1.45881 1.43783 -0.216712
lowerneck -6.86575 -3.97693 -11.0207
upperneck 37.5651 -8.61607 8.24258
head 15.0762 -4.78604 4.03681
rclavicle 1.27222e-014 -9.54166e-015
rhumerus -29.9661 -2.19229 -77.4284
rradius 53.5429
rwrist -17.1528
rhand -20.9347 12.5026
rfingers 7.12502
rthumb 5.43741 -17.4077
lclavicle 1.27222e-014 -9.54166e-015
lhumerus -41.8104 3.3654 84.3513
lradius 40.9578
lwrist 7.59653
lhand -21.081 18.282
lfingers 7.12502
lthumb 5.2961 48.1958
rfemur -26.0794 -12.0308 27.6345
rtibia 38.4894
rfoot -13.6219 9.27698
rtoes 22.8182
lfemur -28.4795 -10.0398 -12.1541
ltibia 41.9433
lfoot -15.8579 -16.3587
ltoes 2.74021
2898
root -8.84807 17.4559 21.4579 585.698 -94.8858 -221.561
lowerback 9.22531 1.93469 6.33918
upperback 3.56101 3.00513 3.56181
thorax -1.31867 1.43872 -0.163229
lowerneck -6.8952 -3.78906 -11.0313
upperneck 37.8885 -8.4897 8.45198
head 15.2368 -4.7295 4.15814
rclavicle 2.42517e-014 -6.36111e-015
rhumerus -30.0962 -2.71468 -77.4107
rradius 53.2701
rwrist -16.1518
rhand -20.6339 12.3112
rfingers 7.12502
rthumb 5.72778 -17.5914
lclavicle 2.42517e-014 -6.36111e-015
lhumerus -42.2152 3.26509 84.3477
lradius 41.1598
lwrist 7.41683
lhand -20.931 18.7013
lfingers 7.12502
lthumb 5.44099 48.6114
rfemur -25.6612 -11.8759 27.4295
rtibia 38.599
rfoot -13.3886 10.4083
rtoes 25.9733
lfemur -28.149 -10.0218 -12.2901
ltibia 41.3031
lfoot -14.4182 -16.5106
ltoes 2.99779
2899
root -8.91743 17.4456 21.4801 591.579 -94.8439 -227.73
lowerback 9.15719 1.84956 6.34565
upperback 3.50936 2.88863 3.87402
thorax -1.35609 1.37361 0.168793
lowerneck -6.78817 -3.65506 -11.2123
upperneck 38.1429 -8.27267 8.28938
head 15.3085 -4.70323 4.16192
rclavicle 9.93923e-015 4.77083e-015
rhumerus -30.2575 -2.58324 -77.1483
rradius 52.9697
rwrist -16.1863
rhand -20.7807 12.2518
rfingers 7.12502
rthumb 5.58611 -17.6546
lclavicle 9.93923e-015 4.77083e-015
lhumerus -42.5827 3.93076 84.4086
lradius 40.9976
lwrist 6.8567
lhand -20.6954 19.1382
lfingers 7.12502
lthumb 5.66841 49.0424
rfemur -25.1108 -11.799 27.6467
rtibia 38.6703
rfoot -13.6926 10.8066
rtoes 26.1741
lfemur -27.7681 -9.87797 -11.9851
ltibia 40.7805
lfoot -12.3086 -16.9012
ltoes 5.97625
2900
root -8.98223 17.4347 21.504 598.664 -94.816 -235.053
lowerback 9.08337 1.7916 6.40715
upperback 3.46012 2.81089 4.15693
thorax -1.38058 1.32848 0.436948
lowerneck -6.6579 -3.57019 -11.2116
upperneck 38.2223 -8.036 7.87403
head 15.2603 -4.66448 4.01949
rclavicle -1.07344e-014 -4.77083e-014
rhumerus -30.4435 -2.23118 -76.9492
rradius 52.7283
rwrist -16.6068
rhand -21.0399 12.2965
rfingers 7.12502
rthumb 5.33586 -17.6164
lclavicle -1.07344e-014 -4.77083e-014
lhumerus -42.7359 4.13522 84.6306
lradius 40.466
lwrist 6.8081
lhand -20.7919 18.7647
lfingers 7.12502
lthumb 5.57525 48.6713
rfemur -24.5644 -11.2523 27.8461
rtibia 38.6773
rfoot -14.5045 9.94904
rtoes 23.6771
lfemur -27.3404 -9.54238 -11.7139
ltibia 40.3719
lfoot -10.3969 -17.2617
ltoes 11.3616
2901
root -9.05044 17.4265 21.5316 605.979 -94.7303 -242.507
lowerback 8.73496 1.73757 6.56232
upperback 3.49375 2.7134 4.22142
thorax -1.15166 1.28506 0.439587
lowerneck -6.73168 -3.41393 -10.9859
upperneck 38.3174 -7.77305 7.62522
head 15.2607 -4.55769 3.91079
rclavicle -2.98177e-014 -6.20208e-014
rhumerus -30.4836 -2.27076 -77.0343
rradius 52.4634
rwrist -16.829
rhand -21.1212 12.5002
rfingers 7.12502
rthumb 5.25728 -17.4146
lclavicle -2.98177e-014 -6.20208e-014
lhumerus -42.7774 3.75765 84.8345
lradius 40.0811
lwrist 7.24089
lhand -20.9467 18.4551
lfingers 7.12502
lthumb 5.42582 48.3656
rfemur -24.1029 -10.888 27.9499
rtibia 38.647
rfoot -15.1116 9.59955
rtoes 21.6885
lfemur -26.8855 -9.12532 -11.5836
ltibia 40.0796
lfoot -8.77084 -18.1089
ltoes 19.9099
2902
root -9.11461 17.4225 21.5509 612.767 -94.7148 -249.263
lowerback 8.2158 1.68268 6.62187
upperback 3.49533 2.59532 4.25208
thorax -0.866107 1.23402 0.465598
lowerneck -6.80545 -3.29489 -10.7438
upperneck 38.307 -7.58902 7.47535
head 15.2246 -4.46653 3.82712
rclavicle -5.1684e-015 -5.40694e-014
rhumerus -30.483 -2.34762 -77.1964
rradius 52.1036
rwrist -17.065
rhand -21.1191 12.965
rfingers 7.12502
rthumb 5.25936 -16.9497
lclavicle -5.1684e-015 -5.40694e-014
lhumerus -42.8211 3.75814 84.7555
lradius 39.8302
lwrist 7.10923
lhand -20.5243 18.587
lfingers 7.12502
lthumb 5.8336 48.4867
rfemur -23.8596 -10.432 28.0878
rtibia 38.6638
rfoot -15.5033 9.48809
rtoes 20.5985
lfemur -26.5685 -8.60852 -11.4139
ltibia 39.8651
lfoot -7.62976 -19.1425
ltoes 25.8279
2903
root -9.16585 17.4109 21.5589 621.115 -94.9769 -257.539
lowerback 7.82214 1.66646 6.61613
upperback 3.43987 2.53659 4.48697
thorax -0.718938 1.20355 0.728145
lowerneck -6.85448 -3.19433 -10.8118
upperneck 38.3196 -7.4225 7.44607
head 15.221 -4.4151 3.85014
rclavicle -1.59028e-015 1.43125e-014
rhumerus -30.4915 -2.15028 -77.2308
rradius 51.7253
rwrist -17.3265
rhand -21.3398 13.2135
rfingers 7.12502
rthumb 5.04627 -16.7064
lclavicle -1.59028e-015 1.43125e-014
lhumerus -42.8176 4.13384 84.6991
lradius 39.4164
lwrist 6.63437
lhand -20.3477 18.4914
lfingers 7.12502
lthumb 6.00414 48.3864
rfemur -23.7471 -9.36408 28.5338
rtibia 38.8012
rfoot -15.9833 8.73985
rtoes 19.1977
lfemur -26.2282 -7.98975 -10.8927
ltibia 39.7053
lfoot -7.65127 -19.7451
ltoes 27.6344
2904
root -9.22139 17.3835 21.5755 628.736 -95.3194 -265.333
lowerback 7.58644 1.58967 6.66697
upperback 3.46279 2.40477 4.73208
thorax -0.576522 1.1354 0.971908
lowerneck -6.96907 -3.00458 -10.9936
upperneck 38.4931 -7.15816 7.51629
head 15.3102 -4.33372 3.95568
rclavicle 9.14409e-015 4.13472e-014
rhumerus -30.5213 -2.02409 -77.0913
rradius 51.412
rwrist -17.4726
rhand -21.1605 13.8004
rfingers 7.12502
rthumb 5.21934 -16.1153
lclavicle 9.14409e-015 4.13472e-014
lhumerus -42.9185 4.38916 84.8128
lradius 39.0696
lwrist 6.58671
lhand -20.4368 18.1035
lfingers 7.12502
lthumb 5.9181 48.0009
rfemur -23.4721 -9.10078 28.9117
rtibia 39.0814
rfoot -16.4225 8.99234
rtoes 19.0323
lfemur -25.4503 -7.47542 -10.4818
ltibia 39.5656
lfoot -9.27885 -19.5661
ltoes 25.5615
2905
root -9.27861 17.3664 21.6007 633.713 -95.4271 -270.548
lowerback 7.41232 1.4669 6.60607
upperback 3.46375 2.21779 4.81799
thorax -0.490665 1.04165 1.11331
lowerneck -7.06382 -2.82749 -10.8913
upperneck 38.7415 -6.91439 7.37959
head 15.4117 -4.24933 3.91856
rclavicle -6.16232e-015 -3.18055e-014
rhumerus -30.6477 -2.40525 -76.8953
rradius 51.1326
rwrist -17.0998
rhand -20.5743 14.4547
rfingers 7.12502
rthumb 5.7854 -15.4464
lclavicle -6.16232e-015 -3.18055e-014
lhumerus -43.1049 4.66832 84.8189
lradius 38.7692
lwrist 6.40627
lhand -20.2793 18.0409
lfingers 7.12502
lthumb 6.07018 47.934
rfemur -23.1168 -9.63084 28.9358
rtibia 39.5056
rfoot -17.1669 9.69109
rtoes 17.3268
lfemur -24.5631 -7.13406 -10.5358
ltibia 39.3873
lfoot -11.4157 -18.6626
ltoes 20.2149
2906
root -9.32477 17.3764 21.6184 637.145 -95.377 -274.129
lowerback 7.33513 1.38141 6.27684
upperback 3.3813 2.08618 4.86428
thorax -0.553103 0.972032 1.35337
lowerneck -7.13831 -2.7673 -10.7866
upperneck 39.0165 -6.87023 7.26845
head 15.5533 -4.24769 3.86212
rclavicle 1.05356e-014 1.27222e-014
rhumerus -30.8691 -2.98561 -76.8212
rradius 50.9311
rwrist -16.4956
rhand -21.0542 13.8606
rfingers 7.12502
rthumb 5.32198 -16.0526
lclavicle 1.05356e-014 1.27222e-014
lhumerus -43.1428 5.09644 84.6123
lradius 38.2475
lwrist 5.2359
lhand -19.2758 17.5535
lfingers 7.12502
lthumb 7.03889 47.4165
rfemur -22.7607 -9.71906 28.8018
rtibia 39.9566
rfoot -18.1092 9.45066
rtoes 13.8211
lfemur -23.9563 -6.77366 -10.7621
ltibia 39.1774
lfoot -12.2231 -18.3595
ltoes 17.4096
